<?xml version="1.0" encoding="UTF-8" standalone="no"?>
<!-- Created with Inkscape (http://www.inkscape.org/) -->

<svg
   width="350.36301mm"
   height="112.70531mm"
   viewBox="0 0 350.36301 112.70535"
   version="1.1"
   id="svg5"
   inkscape:version="1.1.1 (3bf5ae0d25, 2021-09-20)"
   sodipodi:docname="rugge_logo_gradient.svg"
   inkscape:export-filename="C:\Users\Olia\Desktop\rugge_logo.png"
   inkscape:export-xdpi="300"
   inkscape:export-ydpi="300"
   xmlns:inkscape="http://www.inkscape.org/namespaces/inkscape"
   xmlns:sodipodi="http://sodipodi.sourceforge.net/DTD/sodipodi-0.dtd"
   xmlns:xlink="http://www.w3.org/1999/xlink"
   xmlns="http://www.w3.org/2000/svg"
   xmlns:svg="http://www.w3.org/2000/svg">
  <sodipodi:namedview
     id="namedview7"
     pagecolor="#ffffff"
     bordercolor="#666666"
     borderopacity="1.0"
     inkscape:pageshadow="2"
     inkscape:pageopacity="0.0"
     inkscape:pagecheckerboard="0"
     inkscape:document-units="mm"
     showgrid="true"
     inkscape:zoom="0.34832353"
     inkscape:cx="179.43089"
     inkscape:cy="45.934307"
     inkscape:window-width="1920"
     inkscape:window-height="986"
     inkscape:window-x="-11"
     inkscape:window-y="-11"
     inkscape:window-maximized="1"
     inkscape:current-layer="layer1"
     fit-margin-top="0"
     fit-margin-left="0"
     fit-margin-right="0"
     fit-margin-bottom="0">
    <inkscape:grid
       type="xygrid"
       id="grid14157"
       originx="87.386262"
       originy="-191.62579" />
  </sodipodi:namedview>
  <defs
     id="defs2">
    <linearGradient
       id="linearGradient45024"
       inkscape:swatch="solid">
      <stop
         style="stop-color:#a6e1f4;stop-opacity:1;"
         offset="0"
         id="stop45022" />
    </linearGradient>
    <linearGradient
       id="linearGradient44961"
       inkscape:swatch="solid">
      <stop
         style="stop-color:#a6e1f4;stop-opacity:1;"
         offset="0"
         id="stop44959" />
    </linearGradient>
    <color-profile
       name="Adobe-RGB--1998-"
       xlink:href="../../../Windows/system32/spool/drivers/color/AdobeRGB1998.icc"
       id="color-profile851" />
    <rect
       x="241.15512"
       y="935.19385"
       width="1072.1666"
       height="509.75116"
       id="rect2684" />
  </defs>
  <g
     inkscape:label="Ebene 1"
     inkscape:groupmode="layer"
     id="layer1"
     transform="translate(87.386248,-191.62541)">
    <g
       id="g843">
      <path
         style="fill:#00a9e0;fill-opacity:1;stroke-width:0.17848"
         d="m -5.0065215,294.79369 c 0,-10.26671 0.045,-10.88003 0.96556,-13.1591 1.018299,-2.52106 2.496348,-4.34187 5.077178,-6.25461 4.45858,-3.30437 8.88554,-8.49899 11.0970825,-13.02134 1.0644,-2.1766 1.16281,-3.20764 0.45189,-4.73454 -0.989071,-2.12433 -3.9209625,-3.02344 -5.8013325,-1.77907 -0.71536,0.4734 -1.40889,1.45304 -3.09254,4.36831 -1.25338,2.17023 -2.77520998,3.95718 -5.49674,6.45433 -2.284578,2.09622 -4.963248,3.86694 -6.708477,4.43462 -0.60384,0.19641 -3.2220285,0.88435 -5.8182085,1.52876 -6.70515,1.66431 -10.039581,2.832 -14.326353,5.01696 -8.47639,4.32042 -13.96337,11.10383 -16.237043,20.07342 -0.557216,2.1982 -0.561769,3.05852 -0.02219,4.1998 0.764134,1.61636 1.999033,2.40949 3.751573,2.40949 1.17414,0 1.81205,-0.2203 2.4878,-0.85914 0.71296,-0.67402 1.06297,-1.42956 1.79575,-3.87644 1.19871,-4.00265 2.85858,-6.73555 6.05759,-9.97352 2.46344,-2.49343 3.094,-2.98194 3.34246,-2.58939 0.0892,0.14085 0.16173,4.04268 0.16325,8.77605 l 0.003,8.52244 h 11.155023 11.1550275 z m 26.1162105,-7.17922 c 0.0662,-0.0662 0.12041,-7.42557 0.12041,-16.3541 0,-17.59947 0.0239,-18.11361 0.99801,-21.51093 0.91832,-3.20262 3.08641,-6.87278 5.57369,-9.43516 0.66053,-0.68048 2.36358,-2.11357 3.78455,-3.18463 4.32446,-3.2596 6.98324,-5.68942 10.15201,-9.2778 4.70763,-5.33099 7.60794,-9.60529 9.83101,-14.48829 1.17483,-2.58056 1.39787,-3.61644 1.09745,-5.09722 -0.60973,-3.00548 -2.48874,-5.14844 -5.26661,-6.00644 -2.19305,-0.67736 -4.43981,-0.4135 -5.95271,0.69911 -1.05879,0.77864 -2.21106,2.3906 -4.18374,5.8528 -2.6977,4.73467 -3.53801,5.89708 -6.38474,8.83209 -5.59333,5.76678 -8.37783,8.06551 -12.77233,10.54416 -2.74881,1.55042 -5.20099,2.41416 -12.2259025,4.30635 -12.650018,3.40735 -17.2115255,4.91483 -23.7379055,7.84486 -4.312759,1.93622 -9.544123,5.13266 -13.177153,8.05144 -4.98709,4.00663 -9.75185,9.74739 -12.667606,15.26244 -2.693935,5.09545 -5.567793,13.68253 -5.567793,16.63652 0,0.88605 0.410626,2.3903 0.9318,3.41346 0.454101,0.89149 2.06224,2.60106 2.446732,2.60106 0.160926,0 0.432509,-0.23686 0.603519,-0.52636 1.470984,-2.49017 5.412998,-6.75462 8.161728,-8.8293 2.85032,-2.15135 6.16474,-4.06866 9.27387,-5.36469 0.63807,-0.26597 1.23416,-0.55419 1.32464,-0.64048 0.0981,-0.0936 -0.19333,-0.53698 -0.72241,-1.09895 -1.67705,-1.78131 -2.78718,-3.74648 -3.57741,-6.33278 -0.64727,-2.11842 -0.6944,-5.60132 -0.1061,-7.8403 1.17617,-4.47632 4.03452,-7.977 8.140783,-9.97018 2.457141,-1.19269 4.32446,-1.5794 7.07717,-1.46562 4.18064,0.17281 7.0380785,1.35986 9.9581975,4.13687 2.398099,2.28059 3.937939,4.99053 4.515668,7.94708 0.12469,0.63807 0.28407002,1.22814 0.35419002,1.31127 0.0701,0.0831 0.429961,-0.39876 0.79966,-1.07088 2.20532998,-4.00937 4.39840998,-5.87236 7.44655998,-6.32572 3.1003705,-0.46112 6.1964425,0.65238 8.3423225,3.00034 1.6502,1.80556 2.40929,3.82655 2.39896,6.38688 -0.008,1.87665 -0.26364,2.75674 -1.557871,5.35441 -2.582249,5.18286 -7.1582615,10.47206 -12.6280615,14.59621 -1.64191,1.23799 -2.19988,1.86621 -2.88812,3.25184 -0.64922998,1.30706 -0.88402998,2.35179 -0.82229998,3.65884 l 0.0548,1.16013 10.36532148,0.0461 c 5.700921,0.0254 10.419491,-0.008 10.485721,-0.0744 z m -73.235051,-0.0781 c 0,-0.11066 -0.268089,-0.69757 -0.595748,-1.30425 -1.098311,-2.03353 -1.404081,-3.18707 -1.494838,-5.63934 -0.08109,-2.19135 -0.0682,-2.28652 0.725367,-5.35441 1.715564,-6.63225 3.443365,-10.85277 6.722121,-16.4202 2.171149,-3.68667 4.132928,-6.2337 7.390218,-9.59492 1.23655,-1.27598 2.05875,-2.25863 1.96329,-2.34637 -0.42709,-0.39256 -6.635774,-2.18468 -13.639528,-3.93703 -6.17588,-1.54521 -7.188897,-1.87381 -9.102502,-2.95262 -2.558138,-1.44217 -3.707487,-2.30757 -6.294605,-4.73948 -4.948665,-4.65178 -6.212961,-6.17605 -8.429152,-10.16239 -2.168067,-3.89978 -3.273926,-5.1804 -4.875529,-5.64599 -1.712663,-0.49789 -3.801562,-0.0593 -5.35278,1.12387 -1.561398,1.19093 -2.58127,3.78551 -2.195354,5.58499 0.232815,1.08558 2.301524,5.24525 3.612292,7.26345 3.246552,4.99875 8.001601,10.03498 13.089566,13.86359 2.607233,1.96191 3.952302,3.31402 5.213988,5.2413 1.183185,1.80736 1.85578,3.23951 2.498479,5.31995 l 0.496221,1.60633 0.09218,14.09995 0.09217,14.09996 5.042073,0.0474 c 3.649892,0.0343 5.042067,-0.008 5.042067,-0.15379 z m 37.837863,-18.19058 c 3.65406,-0.63337 7.0156175,-3.81789 7.9220675,-7.50486 0.61817,-2.51438 0.16506,-5.56259 -1.15308,-7.75726 -1.198059,-1.99473 -3.6908375,-3.83037 -6.0564175,-4.45987 -1.29309,-0.3441 -3.86867,-0.33542 -5.23806,0.0177 -2.65294,0.68401 -5.240231,2.80814 -6.424542,5.27445 -0.808161,1.68299 -0.998421,2.54334 -1.003801,4.53918 -0.008,2.85219 0.88437,4.94043 3.009463,7.0449 2.463,2.43909 5.57624,3.42963 8.94437,2.84582 z M -44.093743,238.9296 c 3.640591,-0.77486 6.681421,-2.66183 8.695841,-5.39617 3.24281,-4.4017 3.74284,-9.62361 1.39861,-14.6056 -1.65271,-3.51234 -4.43372,-5.95072 -8.28287,-7.26239 -1.634014,-0.55683 -1.855051,-0.58702 -4.310302,-0.58884 -2.913003,-0.002 -4.113849,0.269 -6.572926,1.48419 -5.10555,2.52296 -8.29496,8.56442 -7.515883,14.23678 0.785336,5.71797 4.89588,10.41638 10.389963,11.87587 1.707153,0.45351 4.690945,0.57684 6.197567,0.25616 z M 4.8637565,226.59845 c 3.5586,-0.6737 6.6577515,-2.3348 9.3163725,-4.99341 2.485899,-2.48591 3.82157,-4.79994 4.76546,-8.25613 0.46339,-1.69672 0.56107,-6.11861 0.17051,-7.71788 -1.36452,-5.58735 -4.74326,-9.93237 -9.5764725,-12.31519 -2.80862,-1.38467 -4.2251,-1.68958 -7.85313,-1.69043 -2.62172998,-6.1e-4 -3.24038,0.0556 -4.551159,0.41385 -7.3505965,2.00875 -12.5748765,8.34894 -13.1255165,15.9291 -0.61754,8.50121 4.98733,16.16235 13.4562465,18.39296 1.82922002,0.48179 5.486189,0.59902 7.397689,0.23713 z"
         id="path836" />
      <text
         xml:space="preserve"
         transform="matrix(0.26458333,0,0,0.27635779,-50.075722,-37.484805)"
         id="text2682"
         style="font-style:normal;font-variant:normal;font-weight:bold;font-stretch:normal;font-size:200px;line-height:1.265;font-family:sans-serif;-inkscape-font-specification:'sans-serif Bold';font-variant-ligatures:normal;font-variant-caps:normal;font-variant-numeric:normal;font-variant-east-asian:normal;letter-spacing:-9.78465px;white-space:pre;shape-inside:url(#rect2684);fill:#00a9e0;fill-opacity:1"><tspan
           x="241.1543"
           y="1176.5237"
           id="tspan867"><tspan
             style="font-size:262.364px;-inkscape-font-specification:'sans-serif, Bold'"
             id="tspan865">RuGGe</tspan></tspan></text>
      <circle
         style="fill:#00a9e0;fill-opacity:1;stroke:#a8adb4;stroke-width:0;stroke-linecap:round;stroke-linejoin:round"
         id="path45221"
         cx="-44.979156"
         cy="230.18712"
         r="7.9375" />
      <circle
         style="fill:#59c7eb;fill-opacity:1;stroke:#a8adb4;stroke-width:0;stroke-linecap:round;stroke-linejoin:round"
         id="path45231"
         cx="-46.308441"
         cy="224.41835"
         r="15" />
      <circle
         style="fill:#a6e1f4;fill-opacity:1;stroke:#a8adb4;stroke-width:0;stroke-linecap:round;stroke-linejoin:round"
         id="path45231-0"
         cx="-16.457418"
         cy="259.24265"
         r="10.380701" />
    </g>
  </g>
</svg>
